<?xml version="1.0" encoding="UTF-8" standalone="no"?>
<!-- Created with Inkscape (http://www.inkscape.org/) -->

<svg
   xmlns:dc="http://purl.org/dc/elements/1.1/"
   xmlns:cc="http://creativecommons.org/ns#"
   xmlns:rdf="http://www.w3.org/1999/02/22-rdf-syntax-ns#"
   xmlns:svg="http://www.w3.org/2000/svg"
   xmlns="http://www.w3.org/2000/svg"
   xmlns:sodipodi="http://sodipodi.sourceforge.net/DTD/sodipodi-0.dtd"
   xmlns:inkscape="http://www.inkscape.org/namespaces/inkscape"
   width="100"
   height="100"
   id="svg2"
   version="1.1"
   inkscape:version="0.48.4 r9939"
   sodipodi:docname="logo.svg"
   inkscape:export-filename="D:\Лена\Офис\Сайт  VL\Лого\logo color.png"
   inkscape:export-xdpi="90"
   inkscape:export-ydpi="90">
  <sodipodi:namedview
     id="base"
     pagecolor="#ffffff"
     bordercolor="#666666"
     borderopacity="1.0"
     inkscape:pageopacity="0.0"
     inkscape:pageshadow="2"
     inkscape:zoom="4.4631337"
     inkscape:cx="3.1011193"
     inkscape:cy="31.537704"
     inkscape:document-units="px"
     inkscape:current-layer="layer1"
     showgrid="true"
     showguides="false"
     inkscape:guide-bbox="true"
     inkscape:window-width="1366"
     inkscape:window-height="716"
     inkscape:window-x="0"
     inkscape:window-y="0"
     inkscape:window-maximized="1">
    <sodipodi:guide
       orientation="0,1"
       position="-545.48237,0"
       id="guide2999" />
    <sodipodi:guide
       orientation="1,0"
       position="0,909.13729"
       id="guide3003" />
    <sodipodi:guide
       id="guide3077"
       position="481.42857,624.28571"
       orientation="1,0" />
    <sodipodi:guide
       id="guide3079"
       position="957.62461,1292.9953"
       orientation="1,0" />
    <sodipodi:guide
       id="guide3081"
       position="-961.66522,1070.7617"
       orientation="0,1" />
    <sodipodi:guide
       id="guide3083"
       position="-719.22861,533.36054"
       orientation="0,1" />
    <sodipodi:guide
       id="guide3220"
       position="560,868.57143"
       orientation="0,1" />
    <sodipodi:guide
       id="guide3222"
       position="320,760"
       orientation="1,0" />
    <sodipodi:guide
       id="guide3224"
       position="711.42857,533.36054"
       orientation="1,0" />
    <sodipodi:guide
       id="guide3228"
       position="-1251.4286,197.14286"
       orientation="0,1" />
    <sodipodi:guide
       orientation="1,0"
       position="280,800"
       id="guide3993" />
    <sodipodi:guide
       orientation="1,0"
       position="220,820"
       id="guide3995" />
    <inkscape:grid
       type="xygrid"
       id="grid3997"
       empspacing="50"
       visible="true"
       enabled="true"
       snapvisiblegridlinesonly="true" />
  </sodipodi:namedview>
  <defs
     id="defs4" />
  <metadata
     id="metadata7">
    <rdf:RDF>
      <cc:Work
         rdf:about="">
        <dc:format>image/svg+xml</dc:format>
        <dc:type
           rdf:resource="http://purl.org/dc/dcmitype/StillImage" />
        <dc:title />
      </cc:Work>
    </rdf:RDF>
  </metadata>
  <g
     style="display:inline"
     inkscape:label="Layer 1"
     inkscape:groupmode="layer"
     id="layer1"
     transform="translate(0,-952.36218)">
    <g
       id="g3147"
       transform="matrix(0.1009302,0,0,0.10096229,2.2801126,950.91421)">
      <path
         inkscape:connector-curvature="0"
         style="fill:#ff0000;stroke:none"
         d="m 480,285.04968 c -71.79702,0 -130,58.20298 -130,130 0,32.17531 11.69934,61.61229 31.0625,84.3125 l 58.0625,-15.5625 C 415.70772,469.84436 400,444.28975 400,415.04968 c 0,-44.18278 35.81722,-80 80,-80 38.00248,0 69.78089,26.50375 77.9375,62.03125 l 50.84375,0 C 600.0339,333.78353 545.70322,285.04968 480,285.04968 z"
         id="path3070" />
      <path
         inkscape:connector-curvature="0"
         style="fill:#ffff00;stroke:none"
         d="m 578.9375,541.36218 -56.28125,15.09375 0,1.53125 C 545.10896,572.15365 560,597.16328 560,625.67468 c 0,44.18278 -35.81722,80 -80,80 -39.43722,0 -72.19625,-28.54324 -78.78125,-66.09375 l -50.5,0 C 357.66234,704.8351 412.90363,755.67468 480,755.67468 c 71.79702,0 130,-58.20298 130,-130 0,-32.18029 -11.69396,-61.61086 -31.0625,-84.3125 z"
         id="path3843" />
      <g
         style="fill:#ff6600;stroke:#ff6600"
         id="g3984">
        <path
           transform="matrix(0.32564129,0,0,0.32564129,581.31579,333.09038)"
           d="m -234.35539,575.08618 c 0,42.39978 -34.37181,76.77159 -76.77159,76.77159 -42.39978,0 -76.77159,-34.37181 -76.77159,-76.77159 0,-42.39978 34.37181,-76.77159 76.77159,-76.77159 42.39978,0 76.77159,34.37181 76.77159,76.77159 z"
           sodipodi:ry="76.771591"
           sodipodi:rx="76.771591"
           sodipodi:cy="575.08618"
           sodipodi:cx="-311.12698"
           id="path3919"
           style="fill:#ff6600;stroke:#ff6600"
           sodipodi:type="arc" />
        <path
           inkscape:connector-curvature="0"
           style="fill:#ff6600;stroke:#ff6600;stroke-width:3.0544579"
           d="M 479.59375,37.0625 466.125,284 493.0625,284 479.59375,37.0625 z M 461.75,364 l -5.625,103.3125 46.9375,0 L 497.4375,364 461.75,364 z"
           transform="translate(0,-11.637817)"
           id="path3941" />
        <path
           inkscape:connector-curvature="0"
           inkscape:label="Triangle"
           style="fill:#ff6600;stroke:#ff6600;stroke-width:3.0544579"
           d="m 544.07353,496.70132 0,46.94555 430.27337,-23.47278 -430.27337,-23.47277 z"
           id="path3966" />
        <path
           id="path3975"
           d="m 416.89104,498.49378 0,46.94555 -430.273371,-23.47278 430.273371,-23.47277 z"
           style="fill:#ff6600;stroke:#ff6600;stroke-width:3.0544579"
           inkscape:label="Triangle"
           inkscape:connector-curvature="0" />
        <path
           id="path3982"
           d="m 483.17868,1014.9231 -13.46875,-246.9376 26.9375,0 -13.46875,246.9376 z m -17.84375,-326.9376 -5.625,-103.31249 46.9375,0 -5.625,103.31249 -35.6875,0 z"
           style="fill:#ff6600;stroke:#ff6600;stroke-width:3.0544579"
           inkscape:connector-curvature="0" />
      </g>
    </g>
    <path
       sodipodi:type="arc"
       style="fill:#000080;stroke:none"
       id="path3991"
       sodipodi:cx="190"
       sodipodi:cy="214"
       sodipodi:rx="30"
       sodipodi:ry="30"
       d="m 220,214 a 30,30 0 1 1 -60,0 30,30 0 1 1 60,0 z"
       transform="matrix(0.0841085,0,0,0.08413524,9.1818202,960.75078)" />
    <path
       transform="matrix(0.0841085,0,0,0.08413524,59.584364,961.00671)"
       d="m 220,214 a 30,30 0 1 1 -60,0 30,30 0 1 1 60,0 z"
       sodipodi:ry="30"
       sodipodi:rx="30"
       sodipodi:cy="214"
       sodipodi:cx="190"
       id="path4001"
       style="fill:#000080;stroke:none"
       sodipodi:type="arc" />
    <path
       sodipodi:type="arc"
       style="fill:#000080;stroke:none"
       id="path4003"
       sodipodi:cx="190"
       sodipodi:cy="214"
       sodipodi:rx="30"
       sodipodi:ry="30"
       d="m 220,214 a 30,30 0 1 1 -60,0 30,30 0 1 1 60,0 z"
       transform="matrix(0.0841085,0,0,0.08413524,59.584364,1011.6812)" />
    <path
       transform="matrix(0.0841085,0,0,0.08413524,8.9259699,1011.6812)"
       d="m 220,214 a 30,30 0 1 1 -60,0 30,30 0 1 1 60,0 z"
       sodipodi:ry="30"
       sodipodi:rx="30"
       sodipodi:cy="214"
       sodipodi:cx="190"
       id="path4005"
       style="fill:#000080;stroke:none"
       sodipodi:type="arc" />
  </g>
  <g
     style="display:inline"
     inkscape:label="Layer all"
     id="layer2"
     inkscape:groupmode="layer"
     transform="translate(0,-964)" />
</svg>
